<?xml version="1.0" encoding="UTF-8" standalone="no"?>
<svg width="10px" height="10px" viewBox="0 0 10 10" version="1.1" xmlns="http://www.w3.org/2000/svg" xmlns:xlink="http://www.w3.org/1999/xlink" xmlns:sketch="http://www.bohemiancoding.com/sketch/ns">
    <!-- Generator: Sketch 3.2 (9961) - http://www.bohemiancoding.com/sketch -->
    <title>rss-icon</title>
    <desc>Created with Sketch.</desc>
    <defs>
        <rect id="path-1" x="0" y="0" width="10" height="10"></rect>
    </defs>
    <g id="Homepage" stroke="none" stroke-width="1" fill="none" fill-rule="evenodd" sketch:type="MSPage">
        <g id="Desktop" sketch:type="MSArtboardGroup" transform="translate(-604.000000, -19.000000)">
            <g id="PODCAST-+-ABOUT-+-New-Mask-Group" sketch:type="MSLayerGroup" transform="translate(411.000000, 15.000000)">
                <g id="rss-icon" transform="translate(193.000000, 4.000000)">
                    <mask id="mask-2" sketch:name="Mask" fill="white">
                        <use xlink:href="#path-1"></use>
                    </mask>
                    <use id="Mask" sketch:type="MSShapeGroup" xlink:href="#path-1"></use>
                    <path d="M9.5,10 C9.5,4.75329488 5.24670512,0.5 0,0.5 C-5.24670512,0.5 -9.5,4.75329488 -9.5,10 C-9.5,15.2467051 -5.24670512,19.5 0,19.5 C5.24670512,19.5 9.5,15.2467051 9.5,10 Z M-8.5,10 C-8.5,5.30557963 -4.69442037,1.5 0,1.5 C4.69442037,1.5 8.5,5.30557963 8.5,10 C8.5,14.6944204 4.69442037,18.5 0,18.5 C-4.69442037,18.5 -8.5,14.6944204 -8.5,10 Z" id="Oval-1" fill="#828282" sketch:type="MSShapeGroup" mask="url(#mask-2)"></path>
                    <path d="M6.5,10 C6.5,6.41014913 3.58985087,3.5 0,3.5 C-3.58985087,3.5 -6.5,6.41014913 -6.5,10 C-6.5,13.5898509 -3.58985087,16.5 0,16.5 C3.58985087,16.5 6.5,13.5898509 6.5,10 Z M-5.5,10 C-5.5,6.96243388 -3.03756612,4.5 0,4.5 C3.03756612,4.5 5.5,6.96243388 5.5,10 C5.5,13.0375661 3.03756612,15.5 0,15.5 C-3.03756612,15.5 -5.5,13.0375661 -5.5,10 Z" id="Oval-2" fill="#828282" sketch:type="MSShapeGroup" mask="url(#mask-2)"></path>
                    <path d="M3.5,10 C3.5,8.06700338 1.93299662,6.5 0,6.5 C-1.93299662,6.5 -3.5,8.06700338 -3.5,10 C-3.5,11.9329966 -1.93299662,13.5 0,13.5 C1.93299662,13.5 3.5,11.9329966 3.5,10 Z M-2.5,10 C-2.5,8.61928813 -1.38071187,7.5 0,7.5 C1.38071187,7.5 2.5,8.61928813 2.5,10 C2.5,11.3807119 1.38071187,12.5 0,12.5 C-1.38071187,12.5 -2.5,11.3807119 -2.5,10 Z" id="Oval-3" fill="#828282" sketch:type="MSShapeGroup" mask="url(#mask-2)"></path>
                </g>
            </g>
        </g>
    </g>
</svg>